<svg width="86" height="115" viewBox="0 0 86 115" fill="none" xmlns="http://www.w3.org/2000/svg">
<path d="M42.6981 0L46.4205 35.8944L61.7003 5.6638L53.1281 40.1126L76.939 21.5334L57.7699 47.7137L85.3958 44.4656L59.4266 57.1921L85.3958 69.9185L57.7699 66.6704L76.939 92.8508L53.1281 74.2715L61.7003 108.72L46.4205 78.4898L42.6981 114.384L38.9756 78.4898L23.6958 108.72L32.268 74.2715L8.45719 92.8508L27.6262 66.6704L0.000392914 69.9185L25.9696 57.1921L0.000392914 44.4656L27.6262 47.7137L8.45719 21.5334L32.268 40.1126L23.6958 5.6638L38.9756 35.8944L42.6981 0Z" fill="white"/>
</svg>
